<svg width="512" height="512" viewBox="0 0 512 512" fill="none" xmlns="http://www.w3.org/2000/svg">
<g clip-path="url(#clip0_5704_672)">
<path d="M416 0H96C42.9807 0 0 42.9807 0 96V416C0 469.019 42.9807 512 96 512H416C469.019 512 512 469.019 512 416V96C512 42.9807 469.019 0 416 0Z" fill="white" style="fill:white;fill-opacity:1;"/>
<path d="M92.444 302.5H53.276L97.82 215.46H145.308L189.852 302.5H150.684L144.284 290.084H98.844L92.444 302.5ZM121.628 239.14L109.724 264.996H133.404L121.628 239.14ZM194 302.5V215.46C225.232 215.46 256.464 215.46 287.568 215.46C304.848 215.46 311.376 225.956 311.376 235.556C311.376 246.82 309.584 251.812 302.928 257.188C311.76 260.26 315.984 266.916 315.984 278.564C315.984 293.156 308.56 302.5 287.184 302.5C256.208 302.5 225.104 302.5 194 302.5ZM231.632 241.828V250.148H272.208C277.84 250.148 277.584 241.7 272.208 241.7C266.448 241.7 245.712 241.828 231.632 241.828ZM231.632 267.94V276.26C246.352 276.26 269.648 276.26 275.408 276.26C280.784 276.26 281.552 267.94 275.408 267.94H231.632ZM320.47 258.98C320.47 228.132 342.102 213.668 363.99 213.668C377.686 213.668 389.206 213.668 402.902 213.668C428.502 213.668 443.734 226.084 445.91 246.308H413.654C412.246 243.236 410.582 241.188 399.19 241.188C388.438 241.188 380.886 241.188 370.134 241.188C360.406 241.188 354.39 247.332 354.39 258.98C354.39 270.756 360.406 276.772 370.134 276.772C380.886 276.772 383.83 276.772 394.582 276.772C399.19 276.772 407.894 275.236 411.478 270.116H383.574V251.684H446.038V302.5H422.358L418.902 292.9C414.678 299.556 405.206 304.42 391.254 304.42C377.558 304.42 377.686 304.42 363.99 304.42C342.102 304.42 320.47 291.236 320.47 258.98Z" fill="black" style="fill:black;fill-opacity:1;"/>
</g>
<defs>
<clipPath id="clip0_5704_672">
<rect width="512" height="512" fill="white" style="fill:white;fill-opacity:1;"/>
</clipPath>
</defs>
</svg>
