<svg xmlns="http://www.w3.org/2000/svg" viewBox="0 0 24 24" width="384px" height="384px"
    baseProfile="basic">
    <linearGradient id="uM9GNKKeYxkDkUWyj9slva" x1="2.358" x2="19.849" y1="2.813" y2="20.303"
        gradientUnits="userSpaceOnUse">
        <stop offset="0" stop-color="#fff" stop-opacity=".6" />
        <stop offset="1" stop-color="#fff" stop-opacity=".3" />
    </linearGradient>
    <path fill="url(#uM9GNKKeYxkDkUWyj9slva)"
        d="M22,8.504V8c0-1.657-1.343-3-3-3h-8l-0.544-1.632C10.184,2.551,9.419,2,8.558,2H4 C2.895,2,2,2.895,2,4v4.504c-0.714,0.538-1.126,1.444-0.965,2.407l1.097,6.582C2.373,18.94,3.624,20,5.091,20h13.818 c1.467,0,2.718-1.06,2.959-2.507l1.097-6.582C23.126,9.948,22.714,9.042,22,8.504z" />
    <linearGradient id="uM9GNKKeYxkDkUWyj9slvb" x1="2.358" x2="19.849" y1="2.813" y2="20.303"
        gradientUnits="userSpaceOnUse">
        <stop offset="0" stop-color="#fff" stop-opacity=".6" />
        <stop offset=".493" stop-color="#fff" stop-opacity="0" />
        <stop offset=".997" stop-color="#fff" stop-opacity=".3" />
    </linearGradient>
    <path fill="url(#uM9GNKKeYxkDkUWyj9slvb)"
        d="M8.558,2.5 c0.647,0,1.219,0.412,1.423,1.026l0.544,1.632L10.64,5.5H11h8c1.379,0,2.5,1.121,2.5,2.5v0.504v0.249l0.199,0.15 c0.6,0.452,0.896,1.19,0.773,1.926l-1.097,6.582c-0.202,1.21-1.239,2.089-2.466,2.089H5.091c-1.227,0-2.264-0.879-2.466-2.089 l-1.097-6.582c-0.123-0.736,0.174-1.474,0.773-1.926L2.5,8.753V8.504V4c0-0.827,0.673-1.5,1.5-1.5H8.558 M8.558,2H4 C2.895,2,2,2.895,2,4v4.504c-0.714,0.538-1.126,1.444-0.965,2.407l1.097,6.582C2.373,18.94,3.624,20,5.091,20h13.818 c1.467,0,2.718-1.06,2.959-2.507l1.097-6.582C23.126,9.948,22.714,9.042,22,8.504V8c0-1.657-1.343-3-3-3h-8l-0.544-1.632 C10.184,2.551,9.419,2,8.558,2L8.558,2z" />
    <linearGradient id="uM9GNKKeYxkDkUWyj9slvc" x1="4.771" x2="17.437" y1=".401" y2="13.067"
        gradientUnits="userSpaceOnUse">
        <stop offset="0" stop-color="#fff" stop-opacity=".7" />
        <stop offset=".519" stop-color="#fff" stop-opacity=".45" />
        <stop offset="1" stop-color="#fff" stop-opacity=".55" />
    </linearGradient>
    <path fill="url(#uM9GNKKeYxkDkUWyj9slvc)"
        d="M3.501,8h16.999	C21.068,8,21.584,8.19,22,8.504V8c0-1.657-1.343-3-3-3h-8l-0.544-1.632C10.184,2.551,9.419,2,8.558,2H4C2.895,2,2,2.895,2,4v4.504	C2.416,8.19,2.932,8,3.501,8z" />
</svg>