<svg xmlns="http://www.w3.org/2000/svg" viewBox="0 0 24 24" width="384px" height="384px"
    baseProfile="basic">
    <linearGradient id="GMY3i330ZeNy8vfvcJPfja" x1="2.818" x2="19.061" y1="4.939" y2="21.182"
        gradientUnits="userSpaceOnUse">
        <stop offset="0" stop-color="#fff" stop-opacity=".6" />
        <stop offset="1" stop-color="#fff" stop-opacity=".3" />
    </linearGradient>
    <path fill="url(#GMY3i330ZeNy8vfvcJPfja)"
        d="M4,19V5c0-1.657,1.343-3,3-3h7l6,6v11c0,1.657-1.343,3-3,3H7C5.343,22,4,20.657,4,19z" />
    <linearGradient id="GMY3i330ZeNy8vfvcJPfjb" x1="2.818" x2="19.061" y1="4.939" y2="21.182"
        gradientUnits="userSpaceOnUse">
        <stop offset="0" stop-color="#fff" stop-opacity=".6" />
        <stop offset=".493" stop-color="#fff" stop-opacity="0" />
        <stop offset=".997" stop-color="#fff" stop-opacity=".3" />
    </linearGradient>
    <path fill="url(#GMY3i330ZeNy8vfvcJPfjb)"
        d="M13.793,2.5L19.5,8.207V19 c0,1.379-1.122,2.5-2.5,2.5H7c-1.378,0-2.5-1.121-2.5-2.5V5c0-1.379,1.122-2.5,2.5-2.5H13.793 M14,2H7C5.343,2,4,3.343,4,5v14 c0,1.657,1.343,3,3,3h10c1.657,0,3-1.343,3-3V8L14,2L14,2z" />
    <linearGradient id="GMY3i330ZeNy8vfvcJPfjc" x1="12.793" x2="18.793" y1="3.207" y2="9.207"
        gradientUnits="userSpaceOnUse">
        <stop offset="0" stop-color="#fff" stop-opacity=".7" />
        <stop offset=".519" stop-color="#fff" stop-opacity=".45" />
        <stop offset="1" stop-color="#fff" stop-opacity=".55" />
    </linearGradient>
    <path fill="url(#GMY3i330ZeNy8vfvcJPfjc)" d="M14,6V2l6,6h-4C14.895,8,14,7.105,14,6z" />
    <linearGradient id="GMY3i330ZeNy8vfvcJPfjd" x1="9.793" x2="14.207" y1="9.793" y2="14.207"
        gradientUnits="userSpaceOnUse">
        <stop offset="0" stop-color="#fff" stop-opacity=".7" />
        <stop offset=".519" stop-color="#fff" stop-opacity=".45" />
        <stop offset="1" stop-color="#fff" stop-opacity=".55" />
    </linearGradient>
    <path fill="url(#GMY3i330ZeNy8vfvcJPfjd)"
        d="M15,13H9c-0.553,0-1-0.448-1-1s0.447-1,1-1	h6c0.553,0,1,0.448,1,1S15.553,13,15,13z" />
    <linearGradient id="GMY3i330ZeNy8vfvcJPfje" x1="9.293" x2="12.707" y1="14.293" y2="17.707"
        gradientUnits="userSpaceOnUse">
        <stop offset="0" stop-color="#fff" stop-opacity=".7" />
        <stop offset=".519" stop-color="#fff" stop-opacity=".45" />
        <stop offset="1" stop-color="#fff" stop-opacity=".55" />
    </linearGradient>
    <path fill="url(#GMY3i330ZeNy8vfvcJPfje)"
        d="M13,17H9c-0.553,0-1-0.448-1-1s0.447-1,1-1	h4c0.553,0,1,0.448,1,1S13.553,17,13,17z" />
</svg>